<?xml version="1.0" encoding="utf-8"?>
<!-- Generator: Adobe Illustrator 19.0.1, SVG Export Plug-In . SVG Version: 6.00 Build 0)  -->
<svg version="1.1" xmlns="http://www.w3.org/2000/svg" xmlns:xlink="http://www.w3.org/1999/xlink" x="0px" y="0px"

 viewBox="0 0 340 119.5" style="enable-background:new 0 0 340 119.5;" xml:space="preserve">
<style type="text/css">

.st0{fill:#FDFEFE;}

.st1{fill:#23A1EF;}

.st2{fill:#F4F8FA;}
</style>
<g id="Слой_2">
</g>
<g id="Слой_1">

<g>


<g>



<path class="st0" d="M113.2,60.3c0,19.3,0,38.7,0,58c0,1.5-0.3,1.8-1.7,1.8C75.1,120,38.6,120,2.2,120c-1.5,0-1.8-0.3-1.7-1.8




c0.1-38.7,0.1-77.3,0-116c0-1.5,0.3-1.8,1.7-1.8c36.4,0.1,72.9,0.1,109.3,0c1.5,0,1.8,0.3,1.7,1.8




C113.2,21.6,113.2,40.9,113.2,60.3z M58.1,113.3c28.7,0,52.1-23.7,52.1-52.8c0-29.3-23.3-53.3-51.9-53.3C29.7,7.2,6,31.1,6,60.2




C6,89.4,29.4,113.3,58.1,113.3z"/>



<path class="st1" d="M58.1,113.3C29.4,113.3,6,89.4,6,60.2c0-29,23.7-53,52.3-53c28.6,0,51.9,24,51.9,53.3




C110.2,89.6,86.8,113.3,58.1,113.3z M51.4,33.1C51.4,33.1,51.4,33.1,51.4,33.1c-7.1,0-14.1,0-21.2,0c-3.3,0-4.2,1.1-4.2,4.4




c0,9.8,0,19.6,0,29.3c0,3.2,0.7,4,3.8,4.2c0.9,0.1,1.4-0.1,1.2,1.4c-0.3,2.6-0.1,5.2-0.2,7.8c0,1.5,0.6,2.4,1.8,3




c1.2,0.6,2-0.3,2.8-1c3.3-3.1,6.6-6.2,9.8-9.4c1.2-1.2,2.4-1.8,4.1-1.7c7.6,0.1,15.3,0,22.9,0c4,0,4.8-0.8,4.8-5




c0-9.3,0-18.6,0-27.8c0-4-1-5.1-4.9-5.1C65.2,33.1,58.3,33.1,51.4,33.1z M92.1,61.8C92.1,61.8,92.1,61.8,92.1,61.8




c0-4.7,0-9.4,0-14.2c0-3.1-1.3-4.4-4.3-4.5c-1.7-0.1-3.4,0.1-5.1-0.1c-1.9-0.1-2.6,0.6-2.5,2.6c0.1,6.8,0,13.7,0,20.5




c0,5.5-2.3,7.9-7.7,7.9c-7.6,0-15.1,0-22.7,0c-1.7,0-3.9,1.9-3.8,3.2c0.3,2.1,2,1.8,3.4,2c0.6,0.1,1.1,0,1.7,0




c5.7,0,11.4,0.1,17.1,0c1.9,0,3.3,0.5,4.7,1.9c2.9,3.1,6.1,6,9.1,9.1c1.1,1.1,2.2,1.5,3.5,1c1.4-0.6,1.3-1.9,1.3-3.2




c0-1.9-0.1-3.9,0-5.8c0.1-1.6,0.2-3,2.4-3c1.8,0,2.9-1.2,2.8-3.3C92,71.2,92.1,66.5,92.1,61.8z"/>



<path class="st2" d="M51.4,33.1c6.9,0,13.8,0,20.7,0c3.9,0,4.9,1.1,4.9,5.1c0,9.3,0,18.6,0,27.8c0,4.2-0.8,5-4.8,5




c-7.6,0-15.3,0-22.9,0c-1.7,0-2.9,0.5-4.1,1.7C42,76,38.6,79,35.4,82.2c-0.8,0.7-1.5,1.6-2.8,1c-1.2-0.6-1.8-1.5-1.8-3




c0.1-2.6-0.2-5.3,0.2-7.8c0.2-1.4-0.3-1.3-1.2-1.4c-3.1-0.2-3.8-1-3.8-4.2c0-9.8,0-19.6,0-29.3c0-3.3,1-4.4,4.2-4.4




C37.3,33,44.3,33.1,51.4,33.1C51.4,33.1,51.4,33.1,51.4,33.1z M51.5,42.5C51.5,42.5,51.5,42.5,51.5,42.5c-6.3,0-12.7,0-19,0




c-1.1,0-2.3-0.1-2.3,1.5c0,1.4,1.1,1.5,2.1,1.5c12.8,0,25.5,0,38.3,0.1c1.1,0,2.1-0.2,2.1-1.5c0.1-1.6-1.2-1.5-2.3-1.6




C64.2,42.5,57.8,42.5,51.5,42.5z M51.5,57.8c2.4,0,4.7,0,7.1,0c4.1,0,8.1,0,12.2,0c1,0,2.1-0.2,2.1-1.5c0-1.3-0.9-1.6-2-1.7




c-0.5,0-1,0-1.5,0c-11.9,0-23.9,0-35.8,0c-0.6,0-1.3,0-1.9,0c-1,0.1-1.4,0.7-1.5,1.7c0,0.9,0.6,1.4,1.4,1.5




c0.6,0.1,1.3,0.1,1.9,0.1C39.5,57.8,45.5,57.8,51.5,57.8z M51.7,48.5c-5.2,0-10.4,0-15.6,0c-1.5,0-2.9,0-4.4,0




c-0.9,0-1.5,0.5-1.6,1.5c0,1,0.6,1.2,1.3,1.5c0.9,0.3,1.8,0.3,2.6,0.3c11.7,0,23.4,0,35.1,0c0.9,0,1.8,0.1,2.6-0.3




c0.5-0.3,1-0.5,1-1.2c0-0.8-0.3-1.4-1-1.6c-0.7-0.2-1.4-0.2-2.2-0.2C63.7,48.5,57.7,48.5,51.7,48.5z M45.9,63.9




C45.9,63.9,45.9,63.9,45.9,63.9c4.6,0,9.3,0,13.9,0c1,0,1.8-0.3,1.8-1.5c0-1.2-0.8-1.5-1.8-1.5c-9.1,0-18.2,0-27.3,0.1




c-1,0-2.4-0.2-2.3,1.5c0,1.8,1.5,1.5,2.5,1.5C37.1,64,41.5,63.9,45.9,63.9z"/>



<path class="st2" d="M92.1,61.8c0,4.7-0.1,9.4,0,14.2c0,2.2-1,3.3-2.8,3.3c-2.3,0-2.4,1.4-2.4,3c-0.1,1.9,0,3.9,0,5.8




c0,1.3,0.1,2.7-1.3,3.2c-1.3,0.5-2.4,0.1-3.5-1c-3-3.1-6.2-6-9.1-9.1c-1.4-1.5-2.8-2-4.7-1.9c-5.7,0.1-11.4,0-17.1,0




c-0.6,0-1.2,0.1-1.7,0c-1.4-0.3-3.1,0.1-3.4-2c-0.2-1.3,2.1-3.2,3.8-3.2c7.6,0,15.1,0,22.7,0c5.4,0,7.7-2.5,7.7-7.9




c0-6.8,0.1-13.7,0-20.5c0-2,0.6-2.8,2.5-2.6c1.7,0.1,3.4,0,5.1,0.1c3,0.1,4.2,1.4,4.3,4.5C92.1,52.4,92.1,57.1,92.1,61.8




C92.1,61.8,92.1,61.8,92.1,61.8z"/>



<path class="st1" d="M51.5,42.5c6.3,0,12.7,0,19,0c1.1,0,2.3,0,2.3,1.6c-0.1,1.3-1.1,1.5-2.1,1.5c-12.8,0-25.5,0-38.3-0.1




c-1,0-2.1-0.1-2.1-1.5c0-1.6,1.2-1.5,2.3-1.5C38.8,42.5,45.1,42.5,51.5,42.5C51.5,42.5,51.5,42.5,51.5,42.5z"/>



<path class="st1" d="M51.5,57.8c-6,0-12,0-18,0c-0.6,0-1.3,0-1.9-0.1c-0.8-0.1-1.4-0.5-1.4-1.5c0-1,0.5-1.6,1.5-1.7




c0.6-0.1,1.3,0,1.9,0c11.9,0,23.9,0,35.8,0c0.5,0,1,0,1.5,0c1.1,0,2,0.4,2,1.7c0,1.4-1.1,1.5-2.1,1.5c-4.1,0-8.1,0-12.2,0




C56.2,57.8,53.9,57.8,51.5,57.8z"/>



<path class="st1" d="M51.7,48.5c6,0,12,0,18,0c0.7,0,1.5,0,2.2,0.2c0.7,0.2,1,0.8,1,1.6c0,0.7-0.5,1-1,1.2




c-0.9,0.4-1.8,0.3-2.6,0.3c-11.7,0-23.4,0-35.1,0c-0.9,0-1.8,0.1-2.6-0.3c-0.7-0.3-1.4-0.5-1.3-1.5c0.1-1.1,0.7-1.5,1.6-1.5




c1.5-0.1,2.9,0,4.4,0C41.3,48.5,46.5,48.5,51.7,48.5z"/>



<path class="st1" d="M45.9,63.9c-4.4,0-8.8,0-13.1,0c-1.1,0-2.5,0.3-2.5-1.5c0-1.7,1.4-1.5,2.3-1.5c9.1-0.1,18.2,0,27.3-0.1




c1,0,1.8,0.4,1.8,1.5c0,1.2-0.8,1.5-1.8,1.5C55.1,63.9,50.5,63.9,45.9,63.9C45.9,63.9,45.9,63.9,45.9,63.9z"/>


</g>

</g>

<g>


<path class="st1" d="M161.4,51.6c0,4-0.1,10.1-0.2,18.2c-0.1,8.1-0.2,14.2-0.2,18.2c0,1.1-0.4,2-1.1,2.8c-0.7,0.7-1.6,1.1-2.7,1.1



s-2-0.4-2.7-1.1c-0.7-0.7-1.1-1.7-1.1-2.8c0-5.5,0.1-11.5,0.3-17.9c-2.9,1-5.3,1.5-7.3,1.5c-8.2,0-14.1-1.5-17.8-4.5



c-4.1-3.4-6.2-9.1-6.2-17.3c0-1.4,0.1-3.3,0.4-5.8c0.3-2.5,0.4-4.4,0.4-5.8c0-0.5-0.1-1.2-0.2-2.1c-0.1-0.9-0.2-1.6-0.2-2.1



c0-1.1,0.4-2,1.1-2.7c0.8-0.7,1.7-1.1,2.8-1.1c2.7,0,4.1,2.6,4.1,7.8c0,1.4-0.1,3.3-0.4,5.8c-0.3,2.5-0.4,4.5-0.4,5.8



c0,5.6,1.1,9.3,3.3,11.2c2.2,1.9,6.6,2.8,13.1,2.8c1.1,0,2.5-0.3,4.2-1c1.6-0.7,2.7-1.3,3.4-2c0.1-3.9,0.2-6.6,0.2-8.1



c0-2.3-0.1-5.3-0.3-9c-0.2-3.8-0.3-6.8-0.3-9c0-1.1,0.4-2.1,1.1-2.8c0.7-0.7,1.6-1.1,2.7-1.1c1.1,0,2,0.4,2.8,1.1



c0.7,0.7,1.1,1.6,1.1,2.8c0,2.1,0,5,0,8.5C161.4,46.6,161.4,49.5,161.4,51.6z"/>


<path class="st1" d="M202,93.3c-0.5,0-1.4-0.6-2.6-1.7c-1.1-1.1-2-2-2.6-2.9c-2.4,1.4-4.6,2.4-6.5,3.1c-1.9,0.7-3.4,1-4.7,1



c-6,0-10.3-1.7-13-5.2c-2.6-3.2-3.9-8.2-3.9-14.8c0-6.3,2.1-11.7,6.4-16.2c4.2-4.5,9.3-6.7,15.2-6.7c2.2,0,4.7,0.6,7.5,1.8



c3.5,1.5,5.2,3.2,5.2,5.3c0,0.7-0.3,1.3-0.8,1.9c-0.3,1-0.5,2.6-0.6,4.9c-0.1,2.3-0.2,5.2-0.2,8.7c0,3.2,0.2,5.8,0.6,7.7



c0.3,1.1,1.1,3.4,2.4,6.9c0.2,0.5,0.5,1.2,0.9,2.1l0.2,0.7c0,1-0.4,1.9-1.1,2.6C203.7,92.9,202.9,93.3,202,93.3z M194,66.1



c0-1.1,0.1-2.3,0.2-3.7c0.1-1.3,0.4-2.7,0.6-4.2c-0.9-0.5-1.8-0.9-2.4-1.1c-0.7-0.2-1.2-0.4-1.6-0.4c-4,0-7.4,1.6-10.2,4.9



c-2.9,3.3-4.3,7.1-4.3,11.4c0,4.3,0.7,7.5,2.2,9.6c1.5,2.1,3.7,3.2,6.7,3.2c2.4,0,4.5-0.5,6.2-1.4c0.9-0.5,2.2-1.5,3.9-3



C194.4,74.7,194,69.6,194,66.1z"/>


<path class="st1" d="M241.5,53.5c0,1.1-0.4,2.1-1.1,2.8c-0.7,0.7-1.6,1.1-2.7,1.1c-0.7,0-1.7,0-3.1-0.1c-1.4-0.1-2.4-0.1-3.1-0.1



c-0.8,0-1.7,0.1-2.8,0.2c0.6,13.7,0.8,23,0.8,27.9c0,5.2-1.4,7.8-4.1,7.8c-1,0-1.9-0.3-2.7-1c-0.8-0.7-1.1-1.5-1.1-2.5



c0-1,0-2.5,0.1-4.5c0.1-2,0.1-3.5,0.1-4.5c0-3.4-0.3-11.2-0.8-23.2c-0.8-0.1-2.5-0.1-4.9-0.1c-2.2,0-3.8-0.2-4.6-0.5



c-1.6-0.6-2.4-1.8-2.4-3.6c0-1.1,0.3-2,1-2.8c0.7-0.8,1.6-1.2,2.7-1.2h22.6c1.9,0,3.2,0.2,4.1,0.6



C240.9,50.6,241.5,51.7,241.5,53.5z"/>


<path class="st1" d="M287.5,66.5c0,6.4-1.8,12.3-5.3,17.5c-4.1,6.1-9.5,9.1-16.1,9.1c-5.4,0-10-1.6-13.8-4.9c-4-3.4-6-7.9-6-13.4



c0-6.4,1.9-12.3,5.8-17.6c4.3-6,9.8-9,16.4-9C281.2,48.3,287.5,54.3,287.5,66.5z M279.5,66.5c0-4-0.8-6.7-2.5-8.2



c-1.6-1.5-4.5-2.2-8.5-2.2c-3.9,0-7.3,2-10.2,6.1c-2.7,3.8-4,8.1-4,12.7c0,3.1,1.2,5.7,3.5,7.6c2.2,1.9,5,2.8,8.3,2.8



c3.9,0,7.1-2,9.7-6.1C278.3,75.5,279.5,71.2,279.5,66.5z"/>


<path class="st1" d="M311.6,92.1c-2.5,0-5.4-0.4-8.4-1.3l-0.1,18.7c0,1.1-0.4,2.1-1.1,2.8c-0.7,0.7-1.6,1.1-2.7,1.1



c-1.1,0-2-0.4-2.7-1.1c-0.7-0.7-1.1-1.7-1.1-2.8l0.1-15.6V78.3c-0.1-5.7-0.3-10.9-0.6-15.6l-0.6-7.9c0-1.8,0.3-3.4,1-4.7



c0.8-1.5,1.9-2.3,3.3-2.3c1,0,1.8,0.4,2.5,1.1c0.7,0.7,1,1.6,1,2.6c0,0.2,0,0.7-0.1,1.3c-0.1,0.8-0.2,1.6-0.3,2.2



c2.2-1.5,4.3-2.7,6.3-3.5c2-0.8,4-1.2,5.8-1.2c5.2,0,9,2.4,11.5,7.1c1.9,3.8,2.9,8.7,2.9,14.9c0,5.6-1.5,10.3-4.4,13.9



C321,90.1,316.8,92.1,311.6,92.1z M314.3,58.2c-2.3,0-4.5,0.5-6.3,1.6c-1.4,0.8-3.1,2.1-5.1,4.1c0.3,5.9,0.5,12.1,0.5,18.6



c2.8,1.1,5.6,1.6,8.3,1.6c3.2,0,5.6-1.2,7.3-3.6c1.5-2.1,2.2-4.8,2.2-8.2c0-4.7-0.6-8.3-1.7-10.6



C318.3,59.4,316.5,58.2,314.3,58.2z"/>

</g>
</g>
</svg>
